<?xml version="1.0" encoding="UTF-8" standalone="no"?>
<!-- Created with Inkscape (http://www.inkscape.org/) -->

<svg
   xmlns:dc="http://purl.org/dc/elements/1.1/"
   xmlns:cc="http://creativecommons.org/ns#"
   xmlns:rdf="http://www.w3.org/1999/02/22-rdf-syntax-ns#"
   xmlns:svg="http://www.w3.org/2000/svg"
   xmlns="http://www.w3.org/2000/svg"
   xmlns:sodipodi="http://sodipodi.sourceforge.net/DTD/sodipodi-0.dtd"
   xmlns:inkscape="http://www.inkscape.org/namespaces/inkscape"
   width="64"
   height="64"
   id="svg7425"
   version="1.1"
   inkscape:version="0.91 r13725"
   viewBox="0 0 64 64"
   sodipodi:docname="NewLoga64.svg">
  <defs
     id="defs7427" />
  <sodipodi:namedview
     id="base"
     pagecolor="#ffffff"
     bordercolor="#666666"
     borderopacity="1.0"
     inkscape:pageopacity="0.0"
     inkscape:pageshadow="2"
     inkscape:zoom="7.7781746"
     inkscape:cx="36.944019"
     inkscape:cy="32.941375"
     inkscape:current-layer="layer1"
     showgrid="true"
     inkscape:document-units="px"
     inkscape:grid-bbox="true"
     inkscape:window-width="1920"
     inkscape:window-height="1003"
     inkscape:window-x="-9"
     inkscape:window-y="-9"
     inkscape:window-maximized="1" />
  <metadata
     id="metadata7430">
    <rdf:RDF>
      <cc:Work
         rdf:about="">
        <dc:format>image/svg+xml</dc:format>
        <dc:type
           rdf:resource="http://purl.org/dc/dcmitype/StillImage" />
        <dc:title></dc:title>
      </cc:Work>
    </rdf:RDF>
  </metadata>
  <g
     id="layer1"
     inkscape:label="Layer 1"
     inkscape:groupmode="layer">
    <rect
       style="fill:#3aa39e;fill-opacity:1;fill-rule:evenodd;stroke:none;stroke-width:1.17670643px;stroke-linecap:butt;stroke-linejoin:miter;stroke-opacity:1"
       id="rect4262"
       width="64"
       height="64"
       x="0.085858054"
       y="-0.023536569"
       ry="9.350502" />
    <text
       xml:space="preserve"
       style="font-style:normal;font-weight:normal;font-size:49.40067673px;line-height:125%;font-family:sans-serif;letter-spacing:0px;word-spacing:0px;fill:#000000;fill-opacity:1;stroke:none;stroke-width:1px;stroke-linecap:butt;stroke-linejoin:miter;stroke-opacity:1"
       x="18.512281"
       y="60.699856"
       id="text5756-2"
       sodipodi:linespacing="125%"
       transform="matrix(1.0333745,-0.03003562,0,0.96770339,0,0)"><tspan
         sodipodi:role="line"
         id="tspan5758-7"
         x="18.512281"
         y="60.699856">J</tspan></text>
    <text
       xml:space="preserve"
       style="font-style:normal;font-variant:normal;font-weight:normal;font-stretch:normal;font-size:47.19696045px;line-height:125%;font-family:'Segoe UI Symbol';-inkscape-font-specification:'Segoe UI Symbol';letter-spacing:0px;word-spacing:0px;opacity:1;fill:#000000;fill-opacity:1;stroke:none;stroke-width:1px;stroke-linecap:butt;stroke-linejoin:miter;stroke-opacity:1"
       x="6.5521431"
       y="40.80035"
       id="text5752-3"
       sodipodi:linespacing="125%"
       transform="scale(1.0107832,0.98933184)"><tspan
         sodipodi:role="line"
         id="tspan5754-4"
         x="6.5521431"
         y="40.80035"
         style="fill:#000000;fill-opacity:1">G</tspan></text>
    <text
       xml:space="preserve"
       style="font-style:normal;font-variant:normal;font-weight:normal;font-stretch:normal;font-size:47.19696045px;line-height:125%;font-family:'Segoe UI Symbol';-inkscape-font-specification:'Segoe UI Symbol';letter-spacing:0px;word-spacing:0px;opacity:1;fill:#f4ffff;fill-opacity:1;stroke:none;stroke-width:1px;stroke-linecap:butt;stroke-linejoin:miter;stroke-opacity:1"
       x="6.3598213"
       y="39.217342"
       id="text5752"
       sodipodi:linespacing="125%"
       transform="scale(1.0107832,0.98933184)"><tspan
         sodipodi:role="line"
         id="tspan5754"
         x="6.3598213"
         y="39.217342"
         style="fill:#f4ffff;fill-opacity:1">G</tspan></text>
    <path
       style="font-style:normal;font-weight:normal;font-size:32.90699768px;line-height:125%;font-family:sans-serif;letter-spacing:0px;word-spacing:0px;fill:#000000;fill-opacity:1;stroke:none;stroke-width:1px;stroke-linecap:butt;stroke-linejoin:miter;stroke-opacity:1"
       d="m 37.088737,24.409756 -4.04482,0.2442 0.51416,28.44586 3.78664,-0.22847 0.21514,-0.86257 c -10e-4,-10e-4 -0.003,-0.002 -0.004,-0.003 -0.002,-10e-4 -0.004,-0.006 -0.006,-0.007 -0.011,-0.006 -0.0211,-0.007 -0.0331,-0.0104 -0.0516,-0.0131 -0.0447,-0.0627 0.008,-0.0525 0.004,8.5e-4 0.008,0.002 0.0126,0.003 0.01,-0.003 0.0223,-0.002 0.0368,0.007 5.2e-4,3.4e-4 9.9e-4,6.7e-4 0.002,9.9e-4 l 0.0104,-0.0419 c 0.99806,0.4034 2.00858,0.70839 3.0318,0.91505 1.02344,0.21885 2.21646,0.28721 3.57907,0.20497 1.46301,-0.0883 2.79994,-0.40704 4.01052,-0.95595 1.21037,-0.56109 2.3159,-1.35365 3.31687,-2.37794 0.94425,-0.98426 1.68375,-2.17582 2.21847,-3.5746 0.54905,-1.39965 0.8082,-2.95259 0.77736,-4.65886 -0.061,-3.37598 -0.93302,-5.94044 -2.61598,-7.69341 -1.66861,-1.75383 -3.92284,-2.54504 -6.76281,-2.37363 -1.5921,0.0961 -3.0219,0.43853 -4.2892,1.02746 -1.26751,0.57675 -2.4606,1.2955 -3.5794,2.15609 l -0.18371,-10.16455 z m 7.88574,10.29668 c 1.72034,0.0349 3.00467,0.58195 3.85304,1.64103 0.96934,1.19819 1.47604,3.01618 1.5201,5.45371 0.0482,2.66909 -0.5545,4.66983 -1.80836,6.00221 -1.23974,1.31932 -2.97844,2.04637 -5.21598,2.18142 -1.04706,0.0632 -1.98806,0.0346 -2.82305,-0.0858 -0.82065,-0.12128 -1.80868,-0.36658 -2.96407,-0.73608 l -0.21144,-11.70029 c 1.02038,-0.74484 2.12898,-1.36691 3.32611,-1.86619 1.1969,-0.51148 2.38359,-0.80267 3.55973,-0.87366 0.26356,-0.0159 0.51816,-0.0214 0.76392,-0.0164 z"
       id="text4804-1"
       inkscape:connector-curvature="0" />
    <text
       xml:space="preserve"
       style="font-style:normal;font-weight:normal;font-size:49.40067673px;line-height:125%;font-family:sans-serif;letter-spacing:0px;word-spacing:0px;fill:#f4ffff;fill-opacity:1;stroke:none;stroke-width:1px;stroke-linecap:butt;stroke-linejoin:miter;stroke-opacity:1"
       x="17.926252"
       y="59.605679"
       id="text5756"
       sodipodi:linespacing="125%"
       transform="matrix(1.0333745,-0.03003562,0,0.96770339,0,0)"><tspan
         sodipodi:role="line"
         id="tspan5758"
         x="17.926252"
         y="59.605679">J</tspan></text>
    <rect
       style="fill:#000000;fill-opacity:1"
       id="rect4808"
       width="7.2962999"
       height="1.8768717"
       x="24.615381"
       y="24.959307"
       transform="matrix(0.99998783,0.00493372,-0.00191998,0.99999816,0,0)" />
    <rect
       style="fill:#3aa39e;fill-opacity:1"
       id="rect4808-77"
       width="1.4278693"
       height="2.1939971"
       x="25.13275"
       y="-25.018446"
       transform="matrix(0.00921168,0.99995757,-0.99999793,0.00203441,0,0)" />
    <rect
       style="fill:#3aa39e;fill-opacity:1"
       id="rect4808-77-6"
       width="2.1785479"
       height="8.3465233"
       x="26.099384"
       y="-31.859272"
       transform="matrix(3.9746511e-6,1,-0.99999145,-0.0041359,0,0)" />
    <text
       xml:space="preserve"
       style="font-style:normal;font-weight:normal;font-size:2.81055546px;line-height:125%;font-family:sans-serif;letter-spacing:0px;word-spacing:0px;fill:#fffef2;fill-opacity:1;stroke:none;stroke-width:1px;stroke-linecap:butt;stroke-linejoin:miter;stroke-opacity:1"
       x="25.56769"
       y="58.822605"
       id="text4804"
       sodipodi:linespacing="125%"
       transform="matrix(1.0842445,-0.06544217,0.01665127,0.92129616,0,0)"><tspan
         sodipodi:role="line"
         id="tspan4806"
         x="25.56769"
         y="58.822605"
         style="font-size:40.63887405px;fill:#fffef2;fill-opacity:1">b</tspan></text>
    <rect
       style="fill:#3aa39e;fill-opacity:1"
       id="rect4810"
       width="0.045638219"
       height="0.00749239"
       x="30.954664"
       y="27.256798" />
    <rect
       style="fill:#3aa39e;fill-opacity:1"
       id="rect4808-3"
       width="14.848274"
       height="3.4754267"
       x="23.163256"
       y="18.713585"
       transform="matrix(0.99998992,0.00448928,-0.00211006,0.99999777,0,0)" />
    <path
       style="fill:none;fill-rule:evenodd;stroke:#000000;stroke-width:0.08540905px;stroke-linecap:butt;stroke-linejoin:miter;stroke-opacity:1"
       d="m 36.893927,52.902706 0.11833,-0.30198 0.10757,-0.29668 0.0753,-0.28079 0.043,-0.24371 0.3496,0.12186"
       id="path5787"
       inkscape:connector-curvature="0" />
    <path
       style="fill:#3aa39e;fill-opacity:1;fill-rule:evenodd;stroke:#000000;stroke-width:0.08853288px;stroke-linecap:butt;stroke-linejoin:miter;stroke-opacity:1"
       d="m 36.891157,52.879466 0.14497,-0.34849 0.0812,-0.2693 0.0754,-0.39073 0.029,-0.19537 0.24934,0.11616 0.17975,0.10033 -0.26673,0.97156 z"
       id="path5789"
       inkscape:connector-curvature="0" />
    <rect
       style="opacity:1;fill:#3aa39e;fill-opacity:1;stroke:none"
       id="rect5801"
       width="0.11004309"
       height="0.90666032"
       x="56.846485"
       y="28.737968"
       transform="matrix(0.88598355,0.46371666,-0.43864286,0.89866147,0,0)" />
    <rect
       style="opacity:1;fill:#3aa39e;fill-opacity:1;stroke:none"
       id="rect5803"
       width="0.80578715"
       height="0.39365834"
       x="-33.170944"
       y="59.683739"
       transform="matrix(0.52508334,-0.85105081,0.91320866,0.40749226,0,0)" />
    <path
       style="fill:#3aa39e;fill-opacity:1;fill-rule:evenodd;stroke:none;stroke-width:1px;stroke-linecap:butt;stroke-linejoin:miter;stroke-opacity:1"
       d="m 36.864807,52.933216 0.0913,-0.0899 0.0951,-0.22103 0.0647,-0.20604 0.0532,-0.19105 0.0875,-0.46828 0.41454,1.21751 z"
       id="path5820"
       inkscape:connector-curvature="0" />
    <path
       style="fill:#3aa39e;fill-opacity:1;fill-rule:evenodd;stroke:none;stroke-width:1px;stroke-linecap:butt;stroke-linejoin:miter;stroke-opacity:1"
       d="m 36.864807,52.936026 0.14071,-0.26224 0.1179,-0.31843 0.0571,-0.23601 0.0875,-0.36712 0.54386,1.29244 z"
       id="path5822"
       inkscape:connector-curvature="0" />
  </g>
</svg>
